<?xml version="1.0" encoding="UTF-8"?>
<svg id="Camada_1" data-name="Camada 1" xmlns="http://www.w3.org/2000/svg" viewBox="0 0 4188.88 1573.58">
  <defs>
    <style>
      .cls-1 {
        fill: none;
        stroke: #121d26;
        stroke-miterlimit: 10;
        stroke-width: 81px;
      }

      .cls-2 {
        letter-spacing: 0em;
      }

      .cls-3 {
        fill: #d9dada;
      }

      .cls-4 {
        font-size: 90.75px;
      }

      .cls-4, .cls-5 {
        font-family: Intro, 'Intro ';
      }

      .cls-4, .cls-5, .cls-6 {
        fill: #fff;
      }

      .cls-5 {
        font-size: 373.34px;
      }

      .cls-7 {
        fill: #1a6482;
      }

      .cls-8 {
        fill: #0f1c27;
      }

      .cls-9 {
        letter-spacing: -.02em;
      }

      .cls-10 {
        fill: #00a5c6;
      }

      .cls-11 {
        letter-spacing: .02em;
      }

      .cls-12 {
        letter-spacing: .03em;
      }

      .cls-13 {
        letter-spacing: .03em;
      }

      .cls-14 {
        letter-spacing: .03em;
      }

      .cls-15 {
        fill: #121d26;
      }
    </style>
  </defs>
  <g>
    <g>
      <g>
        <path class="cls-8" d="M827.96,1469.14c-8.4,0-16.42-2.64-23.18-7.63-30.91-22.82-75.81-63.84-120.1-109.71-59.59-61.72-116.56-130.51-164.76-198.96-61.97-88.01-110.47-176.29-144.15-262.39-40.68-104.01-59.68-205.01-56.46-300.19.65-19.31,6.8-121.11,63.85-228.74,28.09-52.99,64.12-98.89,107.09-136.42,51.45-44.94,113.21-78.13,183.56-98.64,50.07-14.6,101.93-22,154.15-22s104.09,7.4,154.15,22c70.35,20.51,132.11,53.7,183.56,98.64,42.97,37.54,79.01,83.44,107.09,136.42,57.06,107.63,63.2,209.43,63.85,228.74,3.22,95.19-15.78,196.19-56.46,300.19-33.68,86.11-82.18,174.39-144.15,262.39-48.2,68.45-105.17,137.24-164.76,198.96-44.29,45.87-89.19,86.89-120.1,109.71-6.76,4.99-14.78,7.63-23.18,7.63Z"/>
        <path class="cls-6" d="M827.96,121.94c50.28,0,100.55,7.1,149.25,21.3,293.67,85.64,339.26,369.06,341.91,447.59,13.58,401.87-380.6,784.39-478.38,856.59-3.8,2.81-8.29,4.21-12.78,4.21s-8.98-1.4-12.78-4.21c-97.78-72.2-491.96-454.72-478.38-856.59,2.65-78.54,48.24-361.96,341.91-447.59,48.7-14.2,98.98-21.3,149.25-21.3M827.96,86.94c-53.88,0-107.39,7.64-159.05,22.7-72.81,21.23-136.79,55.64-190.17,102.26-44.59,38.95-81.95,86.52-111.04,141.41-22.68,42.78-40.08,89.36-51.71,138.43-11.43,48.22-13.72,84.54-14.17,97.92-3.3,97.58,16.1,200.93,57.65,307.16,34.19,87.41,83.36,176.94,146.14,266.1,48.71,69.17,106.28,138.69,166.48,201.04,44.93,46.53,90.65,88.27,122.3,111.63,9.79,7.23,21.4,11.05,33.57,11.05s23.78-3.82,33.57-11.05c31.65-23.37,77.37-65.1,122.3-111.63,60.21-62.35,117.77-131.87,166.48-201.04,62.78-89.15,111.95-178.68,146.14-266.1,41.55-106.23,60.95-209.58,57.65-307.16-.45-13.38-2.74-49.7-14.17-97.92-11.63-49.07-29.03-95.64-51.71-138.43-29.09-54.88-66.45-102.46-111.04-141.41-53.38-46.62-117.36-81.03-190.17-102.26-51.66-15.06-105.17-22.7-159.05-22.7h0Z"/>
      </g>
      <path class="cls-7" d="M827.83,121.94c-50.28,0-100.55,6.87-149.25,20.6-293.67,82.81-339.26,356.86-341.91,432.8-13.58,388.59,380.6,758.46,478.38,828.28,3.8,2.71,8.29,4.07,12.78,4.07V121.94Z"/>
      <path class="cls-10" d="M827.83,121.94c-50.28,0-100.55,6.63-149.25,19.88-293.67,79.91-339.26,344.38-341.91,417.67-13.58,375,380.6,731.94,478.38,799.32,3.8,2.62,8.29,3.93,12.78,3.93V121.94Z"/>
    </g>
    <g>
      <g>
        <path class="cls-6" d="M827.83,978.56c-50.36,0-99.21-9.87-145.21-29.32-44.42-18.79-84.32-45.69-118.57-79.94s-61.15-74.15-79.94-118.57c-19.46-46-29.32-94.86-29.32-145.21s9.87-99.21,29.32-145.21c18.79-44.42,45.69-84.32,79.94-118.57s74.15-61.15,118.57-79.94c46-19.46,94.86-29.32,145.21-29.32s99.21,9.87,145.21,29.32c44.42,18.79,84.32,45.69,118.57,79.94,34.26,34.26,61.15,74.15,79.94,118.57,19.46,46,29.32,94.86,29.32,145.21s-9.87,99.21-29.32,145.21c-18.79,44.42-45.69,84.32-79.94,118.57-34.26,34.26-74.15,61.15-118.57,79.94-46,19.46-94.86,29.32-145.21,29.32Z"/>
        <path class="cls-15" d="M827.83,245.96c198.57,0,359.55,160.98,359.55,359.55s-160.98,359.55-359.55,359.55-359.55-160.98-359.55-359.55,160.98-359.55,359.55-359.55M827.83,218.96c-52.17,0-102.8,10.22-150.47,30.39-46.03,19.47-87.37,47.34-122.86,82.83-35.49,35.49-63.36,76.83-82.83,122.86-20.16,47.67-30.39,98.3-30.39,150.47s10.22,102.8,30.39,150.47c19.47,46.03,47.34,87.37,82.83,122.86,35.49,35.49,76.83,63.36,122.86,82.83,47.67,20.16,98.3,30.39,150.47,30.39s102.8-10.22,150.47-30.39c46.03-19.47,87.37-47.34,122.86-82.83,35.49-35.49,63.36-76.83,82.83-122.86,20.16-47.67,30.39-98.3,30.39-150.47s-10.22-102.8-30.39-150.47c-19.47-46.03-47.34-87.37-82.83-122.86-35.49-35.49-76.83-63.36-122.86-82.83-47.67-20.16-98.3-30.39-150.47-30.39h0Z"/>
      </g>
      <path class="cls-3" d="M971.13,275.93c85.54,65.73,140.68,169.04,140.68,285.25,0,198.57-160.98,359.55-359.55,359.55-51.16,0-99.81-10.71-143.87-29.97,60.62,46.58,136.5,74.3,218.87,74.3,198.57,0,359.55-160.98,359.55-359.55,0-147.41-88.73-274.08-215.68-329.58Z"/>
    </g>
    <g>
      <path class="cls-15" d="M193.62,1270.86c-18.47,0-34.9-1.14-48.81-3.39-31.99-5.18-56.48-18.68-70.83-39.03-12.74-18.07-16.98-41.2-12.25-66.88,6.05-32.87,39.83-80.63,100.38-141.94,46.19-46.77,100.17-93.1,130.78-116.37l1.16-.88c9.27-7.06,20.8-15.85,34.96-18.07.9-.14,1.81-.21,2.71-.21,1.57,0,3.13.21,4.65.63,8.23,2.27,14.14,9.41,19.74,23.86,9.38,24.21,4.11,32.58,2.12,35.73-1.46,2.31-3.44,4.25-5.78,5.66-45.43,27.35-91.2,64.58-136.04,110.64-11,11.3-29.41,30.22-43.79,50.62-18.92,26.84-21.31,42.62-19.98,51.13.78,5.03,3.38,12.54,16.77,19.68,13.4,7.14,34.26,10.76,62.02,10.76,82.83,0,202.09-32.48,265.81-51.84,134.86-40.98,267.3-93.95,393.65-157.45,133.45-67.07,253.72-142.8,357.45-225.09,116.53-92.44,198.28-181.13,242.96-263.59,11.03-20.36,22.49-44.04,23.83-65.32,1.27-20.12-7.1-35.64-26.32-48.85-20.51-14.09-47.08-20.65-83.6-20.65-20.8,0-42.07,2.07-62.65,4.08-5.7.56-11.59,1.13-17.26,1.64-.52.05-1.04.07-1.56.07-4.09,0-8.07-1.43-11.23-4.08-6.18-5.18-21.15-27.43-21.71-41.21-.25-6.12,1.84-11.69,5.89-15.69,2.58-2.55,5.89-4.23,9.46-4.81l79.6-13.02c.88-.14,1.76-.22,2.65-.23,4.97-.05,10.02-.14,15.12-.23,8.15-.14,16.57-.29,25.04-.29,48.38,0,98.4,4.86,136.51,40.12,21.48,19.87,32.94,45.43,34.08,75.98.91,24.42-4.95,52.26-17.41,82.74-16.47,40.27-44.84,86.13-84.33,136.29-104.09,132.22-270,263.53-479.81,379.72-92.8,51.39-190.82,97.99-291.33,138.48-96.46,38.87-190.3,70.19-278.92,93.09-68.16,17.61-175.52,38.18-253.75,38.19Z"/>
      <path class="cls-6" d="M1428.58,303.75c44.8,0,90.82,4.19,124.63,35.47,77.04,71.28-20.94,209.61-69.53,271.34-222.64,282.83-695.89,516.07-1040.69,605.17-63.91,16.52-170.74,37.63-249.37,37.63-16.88,0-32.44-.97-46.01-3.17-46.58-7.54-77.92-35.21-68.66-85.46,12.39-67.26,167.75-204.39,224.54-247.54,8.34-6.34,17.98-13.98,28.24-15.59,4.78,1.32,14.84,28.41,11.71,33.39-50.66,30.5-98.23,70.98-139.55,113.43-31.58,32.44-109.66,113.39-42.69,149.08,17.14,9.13,41.75,12.81,70.25,12.81,87.8,0,212.65-34.9,270.89-52.59,264.2-80.28,540.62-214.01,756.89-385.57,90.38-71.69,192.13-166.83,247.47-268.96,25.93-47.85,45.82-99.99-7.97-136.93-27.08-18.59-59.98-23.72-93.5-23.72-27.7,0-55.83,3.5-81.47,5.79-4.63-3.88-18.76-27.07-14.76-31.02l79.6-13.02c12.96-.13,26.42-.52,39.98-.52M1428.58,268.75v35-35c-8.62,0-17.12.15-25.34.29-5.2.09-10.11.18-15,.23-1.77.02-3.55.17-5.3.46l-79.6,13.02c-7.15,1.17-13.77,4.53-18.93,9.62-7.61,7.5-11.54,17.75-11.09,28.86.24,5.83,1.63,15.47,10.94,31.7,5.83,10.17,11.56,17.64,17.02,22.21,6.32,5.29,14.28,8.16,22.46,8.16,1.04,0,2.07-.05,3.11-.14,5.74-.51,11.67-1.09,17.41-1.65,20.15-1.97,40.99-4,60.94-4,32.82,0,56.24,5.58,73.69,17.57,17.58,12.07,19.41,23.15,18.76,33.32-1.14,18-12.22,40.49-21.75,58.08-23.79,43.9-59.14,90.44-105.08,138.34-37.47,39.07-82.34,79.4-133.37,119.87-102.8,81.55-222.05,156.63-354.43,223.16-62.72,31.52-128.12,60.91-194.36,87.33-64.88,25.88-131,49.1-196.52,69.01-62.79,19.08-180.15,51.08-260.72,51.08-32.59,0-47.69-5.45-53.79-8.7-2.7-1.44-7.3-4.25-7.71-6.93-.19-1.19-1.29-12.41,16.99-38.35,13.58-19.27,31.39-37.56,42.03-48.49,43.79-44.99,88.38-81.28,132.52-107.86,4.68-2.82,8.64-6.7,11.55-11.32,8.16-12.94,7.96-29.27-.61-51.38-5.2-13.42-13.47-29.47-31.41-34.41-3.04-.84-6.17-1.26-9.3-1.26-1.81,0-3.62.14-5.42.42-18.54,2.9-32.6,13.61-42.86,21.44l-1.14.87c-32.13,24.42-85.61,70.38-132.65,118.01-27.3,27.64-49.64,53.02-66.42,75.46-22.13,29.59-34.8,54.32-38.72,75.61-7.08,38.42,4.34,64.78,15.16,80.13,17.12,24.29,45.59,40.27,82.33,46.22,14.83,2.4,32.19,3.62,51.61,3.62,37.52,0,83.24-4.4,135.9-13.09,55.19-9.1,100.27-19.98,122.23-25.65,89.35-23.09,183.92-54.65,281.08-93.8,101.17-40.76,199.84-87.67,293.27-139.41,100.4-55.6,191.58-115.11,271.02-176.87,86.99-67.64,159.02-137.4,214.06-207.33,40.5-51.44,69.69-98.71,86.77-140.49,38.93-95.22,10.08-149.45-20.98-178.19-20.07-18.56-44.28-30.95-74.04-37.86-26.36-6.13-53.59-6.91-74.36-6.91h0Z"/>
    </g>
    <text class="cls-4" transform="translate(2051.96 1063.59)"><tspan class="cls-13" x="0" y="0">R</tspan><tspan class="cls-2" x="66.34" y="0">ASTREAMENTO E MONITO</tspan><tspan class="cls-14" x="1239.79" y="0">R</tspan><tspan x="1306.12" y="0">AMENTO</tspan></text>
    <text class="cls-5" transform="translate(1690.87 897.9)"><tspan x="0" y="0">ne</tspan><tspan class="cls-11" x="515.2" y="0">w</tspan><tspan x="878.45" y="0">t</tspan><tspan class="cls-12" x="1088.26" y="0">R</tspan><tspan class="cls-9" x="1361.16" y="0">A</tspan><tspan x="1621.01" y="0">CKS</tspan></text>
  </g>
  <circle class="cls-1" cx="838.36" cy="596.86" r="198.45"/>
  <circle class="cls-10" cx="838.36" cy="596.86" r="117.77"/>
  <circle class="cls-6" cx="955.26" cy="448.07" r="94.13"/>
</svg>