<?xml version="1.0" encoding="UTF-8"?>
<svg id="Camada_1" data-name="Camada 1" xmlns="http://www.w3.org/2000/svg" viewBox="0 0 2225.55 1775.06">
  <defs>
    <style>
      .cls-1 {
        fill: none;
        stroke: #121d26;
        stroke-miterlimit: 10;
        stroke-width: 81px;
      }

      .cls-2 {
        fill: #d9dada;
      }

      .cls-3 {
        fill: #1a6482;
      }

      .cls-4 {
        fill: #fff;
      }

      .cls-5 {
        fill: #0f1c27;
      }

      .cls-6 {
        fill: #00a5c6;
      }

      .cls-7 {
        fill: #121d26;
      }
    </style>
  </defs>
  <g>
    <g>
      <g>
        <path class="cls-5" d="M1112.89,1251.87c-7.95,0-15.54-2.5-21.94-7.22-27.99-20.67-68.62-57.78-108.68-99.27-53.88-55.8-105.39-118.01-148.97-179.89-56.05-79.59-99.92-159.45-130.38-237.34-36.83-94.15-54.02-185.59-51.11-271.79.59-17.51,6.16-109.78,57.87-207.32,25.46-48.04,58.14-89.66,97.1-123.69,46.65-40.75,102.64-70.84,166.42-89.44,45.37-13.23,92.37-19.94,139.7-19.94s94.33,6.71,139.7,19.94c63.77,18.6,119.76,48.69,166.42,89.44,38.97,34.04,71.64,75.65,97.1,123.69,51.7,97.54,57.27,189.82,57.87,207.32,2.91,86.2-14.28,177.65-51.11,271.79-30.47,77.89-74.33,157.74-130.38,237.34-43.58,61.89-95.09,124.09-148.97,179.89-40.07,41.49-80.69,78.61-108.68,99.27-6.4,4.73-13.99,7.22-21.94,7.22Z"/>
        <path class="cls-4" d="M1112.89,33.46c45.41,0,90.81,6.41,134.8,19.24,265.23,77.34,306.4,333.31,308.8,404.24,12.26,362.95-343.74,708.42-432.05,773.63-3.43,2.53-7.49,3.8-11.54,3.8s-8.11-1.27-11.54-3.8c-88.31-65.21-444.31-410.68-432.05-773.63,2.4-70.93,43.57-326.9,308.8-404.24,43.98-12.83,89.39-19.24,134.8-19.24M1112.89-1.54c-48.98,0-97.63,6.94-144.6,20.64-66.23,19.31-124.45,50.62-173.03,93.06-40.58,35.45-74.58,78.74-101.05,128.68-20.62,38.89-36.43,81.23-47.01,125.82-10.4,43.85-12.48,76.92-12.89,89.1-2.99,88.59,14.6,182.38,52.3,278.76,30.98,79.2,75.52,160.3,132.37,241.04,96.89,137.6,209.51,244.73,261.57,283.17,9.43,6.96,20.61,10.65,32.33,10.65s22.9-3.68,32.33-10.65c52.06-38.44,164.67-145.57,261.57-283.17,56.86-80.74,101.39-161.84,132.37-241.04,37.7-96.38,55.29-190.17,52.3-278.76-.41-12.18-2.49-45.26-12.89-89.1-10.57-44.6-26.39-86.93-47.01-125.82-26.47-49.94-60.47-93.23-101.05-128.68-48.58-42.43-106.8-73.74-173.03-93.06-46.96-13.69-95.61-20.64-144.6-20.64h0Z"/>
      </g>
      <path class="cls-3" d="M1112.78,33.46c-45.41,0-90.81,6.2-134.8,18.6-265.23,74.79-306.4,322.3-308.8,390.88-12.26,350.95,343.74,685,432.05,748.06,3.43,2.45,7.49,3.68,11.54,3.68V33.46Z"/>
      <path class="cls-6" d="M1112.78,33.46c-45.41,0-90.81,5.98-134.8,17.95-265.23,72.17-306.4,311.03-308.8,377.22-12.26,338.68,343.74,661.05,432.05,721.9,3.43,2.37,7.49,3.55,11.54,3.55V33.46Z"/>
    </g>
    <g>
      <g>
        <path class="cls-4" d="M1112.78,808.42c-90.34,0-175.28-35.18-239.16-99.06-63.88-63.88-99.06-148.82-99.06-239.16s35.18-175.28,99.06-239.16c63.88-63.88,148.82-99.06,239.16-99.06s175.28,35.18,239.16,99.06c63.88,63.88,99.06,148.82,99.06,239.16s-35.18,175.28-99.06,239.16c-63.88,63.88-148.82,99.06-239.16,99.06Z"/>
        <path class="cls-7" d="M1112.78,145.47c179.34,0,324.73,145.38,324.73,324.73s-145.38,324.73-324.73,324.73-324.73-145.39-324.73-324.73,145.38-324.73,324.73-324.73M1112.78,118.47c-47.47,0-93.54,9.3-136.92,27.65-41.89,17.72-79.5,43.07-111.79,75.37-32.29,32.29-57.65,69.91-75.37,111.79-18.35,43.38-27.65,89.45-27.65,136.92s9.3,93.54,27.65,136.92c17.72,41.89,43.07,79.5,75.37,111.79,32.29,32.29,69.91,57.65,111.79,75.37,43.38,18.35,89.45,27.65,136.92,27.65s93.54-9.3,136.92-27.65c41.89-17.72,79.5-43.07,111.79-75.37,32.29-32.29,57.65-69.91,75.37-111.79,18.35-43.38,27.65-89.45,27.65-136.92s-9.3-93.54-27.65-136.92c-17.72-41.89-43.07-79.5-75.37-111.79-32.29-32.29-69.91-57.65-111.79-75.37-43.38-18.35-89.45-27.65-136.92-27.65h0Z"/>
      </g>
      <path class="cls-2" d="M1242.2,172.53c77.25,59.36,127.06,152.67,127.06,257.62,0,179.34-145.38,324.73-324.73,324.73-46.2,0-90.14-9.67-129.94-27.07,54.75,42.07,123.28,67.1,197.67,67.1,179.34,0,324.73-145.38,324.73-324.73,0-133.14-80.13-247.54-194.79-297.66Z"/>
    </g>
    <g>
      <path class="cls-7" d="M539.99,1072.79c-16.78,0-31.7-1.04-44.36-3.09-29.35-4.75-51.85-17.18-65.08-35.95-11.78-16.71-15.7-38.04-11.34-61.68,5.53-30.03,36.19-73.45,91.12-129.07,41.77-42.29,90.6-84.21,118.3-105.26l1.04-.8c8.52-6.49,19.13-14.57,32.34-16.64.9-.14,1.8-.21,2.71-.21,1.57,0,3.13.21,4.65.63,8.01,2.21,13.68,8.96,18.95,22.57,8.78,22.66,3.69,30.74,1.77,33.78-1.46,2.31-3.44,4.25-5.78,5.66-40.91,24.63-82.13,58.16-122.52,99.66-15.19,15.6-61.4,63.08-57.14,90.45.65,4.18,2.84,10.45,14.27,16.54,11.69,6.23,30.78,9.52,55.21,9.52,74.59,0,182.11-29.29,239.57-46.74,121.71-36.98,241.23-84.78,355.25-142.09,120.42-60.52,228.94-128.85,322.54-203.1,105.07-83.35,178.75-163.26,218.99-237.54,29.08-53.66,28.63-80.07-1.72-100.91-18.23-12.52-41.92-18.35-74.54-18.35-18.7,0-37.87,1.87-56.41,3.68-5.29.52-10.5,1.02-15.61,1.48-.52.05-1.04.07-1.56.07-4.09,0-8.07-1.43-11.23-4.08-6.44-5.39-19.7-25.79-20.21-38.45-.25-6.01,1.82-11.5,5.83-15.45,2.58-2.55,5.89-4.23,9.46-4.81l71.89-11.76c.88-.14,1.76-.22,2.65-.23,4.49-.05,9.04-.13,13.64-.21,7.36-.13,14.98-.26,22.64-.26,44.04,0,89.6,4.44,124.45,36.69,19.74,18.26,30.28,41.75,31.32,69.81.83,22.3-4.51,47.68-15.85,75.43-14.93,36.52-40.64,78.07-76.4,123.5-94.14,119.59-244.17,238.33-433.85,343.37-83.88,46.45-172.46,88.56-263.3,125.16-87.19,35.13-172.01,63.44-252.12,84.14-61.66,15.93-158.78,34.54-229.6,34.54Z"/>
      <path class="cls-4" d="M1655.34,197.66c40.46,0,82.02,3.78,112.56,32.03,69.58,64.38-18.91,189.31-62.8,245.06-201.08,255.44-628.49,466.09-939.89,546.56-57.72,14.92-154.2,33.98-225.22,33.98-15.24,0-29.3-.88-41.56-2.86-42.06-6.81-70.37-31.8-62.01-77.19,11.19-60.75,151.51-184.59,202.8-223.57,7.53-5.72,16.24-12.63,25.51-14.08,4.31,1.19,13.4,25.66,10.57,30.15-45.75,27.55-88.72,64.11-126.03,102.44-28.52,29.3-99.04,102.41-38.55,134.64,15.49,8.25,37.7,11.57,63.44,11.57,79.3,0,192.06-31.52,244.66-47.5,238.61-72.5,488.26-193.28,683.58-348.22,81.62-64.75,173.52-150.68,223.5-242.91,23.41-43.21,41.38-90.31-7.2-123.67-24.45-16.79-54.17-21.42-84.45-21.42-25.02,0-50.42,3.16-73.58,5.23-4.18-3.5-16.94-24.45-13.33-28.02l71.89-11.76c11.71-.12,23.86-.47,36.11-.47M1655.34,162.66v35-35c-7.82,0-15.51.13-22.95.26-4.69.08-9.11.16-13.52.2-1.77.02-3.54.17-5.3.46l-71.89,11.76c-7.15,1.17-13.77,4.53-18.93,9.62-7.56,7.46-11.47,17.62-11.02,28.62.23,5.63,1.55,14.87,10.33,30.18,5.47,9.53,10.9,16.59,16.14,20.98,6.32,5.29,14.28,8.16,22.46,8.16,1.04,0,2.07-.05,3.11-.14,5.2-.46,10.57-.99,15.76-1.49,18.12-1.77,36.86-3.59,54.71-3.59,28.92,0,49.46,4.85,64.64,15.27,15.2,10.44,15.96,19.45,15.48,27.08-.98,15.59-10.8,35.48-19.24,51.06-21.34,39.38-53.09,81.17-94.37,124.21-33.73,35.17-74.15,71.49-120.11,107.96-92.66,73.51-200.17,141.19-319.52,201.18-113.14,56.86-231.73,104.29-352.48,140.98-56.52,17.17-162.15,45.99-234.48,45.99-28.7,0-41.75-4.67-46.98-7.46-3.7-1.97-4.94-3.42-5.2-3.77-.11-.94-.62-9.83,13.57-30.48,12.23-17.79,28.87-34.88,38.8-45.09,39.35-40.42,79.39-73.01,119.01-96.87,4.68-2.82,8.64-6.7,11.55-11.32,7.99-12.67,7.91-28.38-.25-49.43-4.98-12.86-12.97-28.26-30.62-33.12-3.04-.84-6.17-1.26-9.31-1.26-1.81,0-3.62.14-5.42.42-17.58,2.76-30.68,12.73-40.24,20.01l-1.03.78c-29.11,22.13-77.56,63.76-120.16,106.89-24.76,25.07-45.04,48.12-60.29,68.5-20.31,27.15-31.95,49.95-35.59,69.7-6.6,35.86,4.1,60.54,14.25,74.94,16,22.7,42.49,37.62,76.59,43.14,13.57,2.2,29.44,3.31,47.15,3.31,72.45,0,171.32-18.91,233.97-35.1,80.84-20.89,166.39-49.44,254.28-84.85,91.5-36.87,180.74-79.29,265.24-126.08,133.68-74.03,318.38-194.48,439.12-347.86,36.77-46.71,63.29-89.67,78.84-127.7,12.29-30.07,18.06-57.89,17.14-82.7-.58-15.51-3.75-30.11-9.44-43.38-6.23-14.52-15.47-27.52-27.48-38.62-18.56-17.18-40.94-28.63-68.4-35.01-24.15-5.61-48.98-6.33-67.92-6.33h0Z"/>
    </g>
    <g>
      <path class="cls-5" d="M112.04,1541.66v115.99h-62.38v-237.03h21.92l119.36,116.66v-115.65h61.7v236.36h-21.58l-119.02-116.32Z"/>
      <path class="cls-5" d="M460.01,1475.58h-87.33v33.38h80.25v53.61h-80.25v41.47h90.36v53.61h-150.38v-236.02h147.34v53.95Z"/>
      <path class="cls-5" d="M657.93,1425.34l40.12,125.43h1.01l10.45-40.12,30.01-89.01h60.02v9.1l-81.93,229.28h-34.73l-37.76-113.63h-1.01l-37.76,113.63h-33.38l-82.94-229.28v-9.1h61.03l30.35,89.01,10.45,40.12h1.01l39.45-125.43h25.62Z"/>
      <path class="cls-5" d="M819.77,1475.58v-53.95h175.33v53.95h-57.66v182.07h-59.68v-182.07h-57.99Z"/>
      <path class="cls-5" d="M1231.8,1648.88v8.77h-67.43l-40.46-69.46h-31.36v69.46h-60.35v-236.02h103.51c92.72.34,109.58,111.94,49.9,152.4l46.19,74.85ZM1135.7,1475.58c-14.16-.34-29,0-43.16,0v59h43.16c32.71,0,34.39-58.67,0-59Z"/>
      <path class="cls-5" d="M1415.22,1627.98h-93.06l-13.82,29.67h-59.01v-8.77l106.21-230.29h25.96l106.55,230.29v8.77h-59l-13.82-29.67ZM1368.35,1514.35l-26.64,62.04h53.95l-27.31-62.04Z"/>
      <path class="cls-5" d="M1620.56,1418.93c48.89,0,101.83,26.64,110.93,89.69h-59.34c-8.43-23.94-26.3-34.73-51.59-34.73-35.4,0-58.67,26.64-58.67,65.75,0,34.73,22.93,65.07,58.67,65.41,25.62,0,46.19-12.81,52.6-38.1h59.34c-8.77,66.76-61.7,93.06-111.94,93.06-60.02.34-120.71-40.12-121.05-120.37.34-80.25,61.03-120.71,121.05-120.71Z"/>
      <path class="cls-5" d="M1779.03,1657.65v-236.02h61.37v89.35h4.38c60.35,0,57.32-45.18,57.32-89.35h62.04c0,48.22,1.35,92.72-45.52,122.73l64.06,103.85v9.44h-67.1l-51.92-91.37c-8.09,1.35-15.51,1.35-23.27,1.35v90.03h-61.37Z"/>
      <path class="cls-5" d="M2133.06,1588.19c0-16.52-19.56-20.23-43.16-21.58-51.25-3.71-84.97-21.24-85.64-72.49-2.02-101.83,181.4-101.83,180.05,0h-57.32c0-31.36-63.39-28.66-65.41-.67-1.35,17.87,16.18,21.58,37.43,23.94,46.87,5.06,92.72,12.14,92.72,71.14,0,99.13-192.19,100.81-190.84-3.04h58.33c0,30.01,73.84,30.35,73.84,2.7Z"/>
    </g>
  </g>
  <circle class="cls-1" cx="1122.29" cy="462.38" r="179.23"/>
  <circle class="cls-6" cx="1122.29" cy="462.38" r="106.36"/>
  <circle class="cls-4" cx="1227.86" cy="328" r="85.01"/>
</svg>