<?xml version="1.0" encoding="UTF-8"?>
<svg id="Camada_1" data-name="Camada 1" xmlns="http://www.w3.org/2000/svg" viewBox="0 0 4188.88 1573.58">
  <defs>
    <style>
      .cls-1 {
        fill: none;
        stroke: #121d26;
        stroke-miterlimit: 10;
        stroke-width: 81px;
      }

      .cls-2 {
        letter-spacing: 0em;
      }

      .cls-3 {
        fill: #d9dada;
      }

      .cls-4 {
        fill: #1a6482;
      }

      .cls-5 {
        fill: #fff;
      }

      .cls-6 {
        font-size: 370.43px;
      }

      .cls-6, .cls-7 {
        font-family: Intro, 'Intro ';
      }

      .cls-6, .cls-7, .cls-8 {
        fill: #0f1c27;
      }

      .cls-7 {
        font-size: 90.04px;
      }

      .cls-9 {
        letter-spacing: -.02em;
      }

      .cls-10 {
        fill: #00a5c6;
      }

      .cls-11 {
        letter-spacing: .02em;
      }

      .cls-12 {
        letter-spacing: .03em;
      }

      .cls-13 {
        letter-spacing: .03em;
      }

      .cls-14 {
        fill: #121d26;
      }
    </style>
  </defs>
  <g>
    <g>
      <g>
        <path class="cls-8" d="M837.8,1463.97c-8.37,0-16.35-2.63-23.08-7.6-30.68-22.65-75.23-63.35-119.19-108.87-59.13-61.24-115.67-129.51-163.49-197.43-61.5-87.33-109.63-174.94-143.05-260.38-40.37-103.21-59.22-203.45-56.03-297.92.65-19.17,6.75-120.2,63.37-227.02,27.88-52.59,63.64-98.15,106.29-135.4,51.06-44.6,112.36-77.54,182.18-97.9,49.69-14.49,101.16-21.84,152.99-21.84s103.3,7.35,152.99,21.84c69.82,20.36,131.12,53.3,182.18,97.9,42.65,37.26,78.42,82.81,106.29,135.4,56.63,106.82,62.72,207.85,63.37,227.02,3.19,94.47-15.66,194.7-56.03,297.92-33.42,85.45-81.55,173.05-143.05,260.38-47.83,67.92-104.36,136.19-163.49,197.43-43.95,45.52-88.51,86.22-119.19,108.87-6.73,4.97-14.71,7.6-23.08,7.6Z"/>
        <path class="cls-5" d="M837.8,127.11c49.89,0,99.77,7.05,148.09,21.14,291.39,84.97,336.62,366.19,339.25,444.11,13.47,398.75-377.64,778.29-474.66,849.93-3.77,2.78-8.23,4.18-12.68,4.18s-8.91-1.39-12.68-4.18c-97.02-71.64-488.14-451.18-474.66-849.93,2.63-77.93,47.87-359.14,339.25-444.11,48.32-14.09,98.21-21.14,148.09-21.14M837.8,92.11c-53.49,0-106.61,7.58-157.89,22.54-72.28,21.08-135.8,55.23-188.79,101.52-44.27,38.67-81.36,85.9-110.24,140.39-22.51,42.47-39.78,88.7-51.33,137.41-11.35,47.87-13.62,83.93-14.07,97.21-3.27,96.86,15.98,199.44,57.22,304.88,33.93,86.75,82.73,175.6,145.04,264.08,48.34,68.64,105.47,137.63,165.21,199.51,44.59,46.18,89.97,87.6,121.38,110.8,9.76,7.21,21.34,11.02,33.47,11.02s23.71-3.81,33.48-11.02c31.41-23.19,76.79-64.61,121.38-110.79,59.75-61.88,116.88-130.87,165.21-199.51,62.31-88.48,111.1-177.33,145.04-264.08,41.24-105.44,60.5-208.02,57.22-304.88-.45-13.28-2.72-49.34-14.07-97.21-11.55-48.71-28.82-94.94-51.33-137.41-28.88-54.49-65.97-101.72-110.24-140.39-52.99-46.29-116.51-80.44-188.79-101.52-51.28-14.95-104.4-22.54-157.89-22.54h0Z"/>
      </g>
      <path class="cls-4" d="M837.68,127.11c-49.89,0-99.77,6.81-148.09,20.44-291.39,82.16-336.62,354.08-339.25,429.43-13.47,385.57,377.64,752.57,474.66,821.84,3.77,2.69,8.23,4.04,12.68,4.04V127.11Z"/>
      <path class="cls-10" d="M837.68,127.11c-49.89,0-99.77,6.57-148.09,19.72-291.39,79.29-336.62,341.7-339.25,414.42-13.47,372.09,377.64,726.25,474.66,793.1,3.77,2.6,8.23,3.9,12.68,3.9V127.11Z"/>
    </g>
    <g>
      <g>
        <path class="cls-5" d="M837.68,977.18c-49.98,0-98.47-9.79-144.12-29.1-44.09-18.65-83.69-45.34-117.69-79.34-34-34-60.69-73.59-79.34-117.69-19.31-45.66-29.1-94.15-29.1-144.12s9.79-98.47,29.1-144.12c18.65-44.09,45.34-83.69,79.34-117.69,34-34,73.59-60.69,117.69-79.34,45.66-19.31,94.15-29.1,144.12-29.1s98.47,9.79,144.12,29.1c44.09,18.65,83.69,45.34,117.69,79.34,34,34,60.69,73.59,79.34,117.69,19.31,45.66,29.1,94.15,29.1,144.12s-9.79,98.47-29.1,144.12c-18.65,44.09-45.34,83.69-79.34,117.69-34,34-73.59,60.69-117.69,79.34-45.66,19.31-94.15,29.1-144.12,29.1Z"/>
        <path class="cls-14" d="M837.68,250.17c197.03,0,356.75,159.72,356.75,356.75s-159.72,356.75-356.75,356.75-356.75-159.72-356.75-356.75,159.72-356.75,356.75-356.75M837.68,223.17c-51.79,0-102.05,10.15-149.38,30.17-45.7,19.33-86.74,47-121.97,82.23-35.23,35.23-62.9,76.27-82.23,121.97-20.02,47.33-30.17,97.59-30.17,149.38s10.15,102.05,30.17,149.38c19.33,45.7,47,86.74,82.23,121.97,35.23,35.23,76.27,62.9,121.97,82.23,47.33,20.02,97.59,30.17,149.38,30.17s102.05-10.15,149.38-30.17c45.7-19.33,86.74-47,121.97-82.23,35.23-35.23,62.9-76.27,82.23-121.97,20.02-47.33,30.17-97.59,30.17-149.38s-10.15-102.05-30.17-149.38c-19.33-45.7-47-86.74-82.23-121.97-35.23-35.23-76.27-62.9-121.97-82.23-47.33-20.02-97.59-30.17-149.38-30.17h0Z"/>
      </g>
      <path class="cls-3" d="M979.86,279.9c84.87,65.22,139.59,167.73,139.59,283.03,0,197.03-159.72,356.75-356.75,356.75-50.76,0-99.04-10.63-142.75-29.74,60.15,46.22,135.44,73.72,217.16,73.72,197.03,0,356.75-159.72,356.75-356.75,0-146.27-88.04-271.95-214-327.02Z"/>
    </g>
    <g>
      <path class="cls-14" d="M208.4,1267.23c-18.34,0-34.64-1.13-48.45-3.37-31.77-5.15-56.11-18.56-70.37-38.78-12.66-17.96-16.87-40.95-12.18-66.46,6.01-32.64,39.54-80.05,99.64-140.91,45.83-46.41,99.4-92.39,129.78-115.48l1.15-.87c9.21-7.02,20.67-15.75,34.76-17.95.9-.14,1.8-.21,2.71-.21,1.57,0,3.13.21,4.65.63,8.21,2.27,14.1,9.37,19.67,23.76,9.33,24.08,4.07,32.43,2.09,35.57-1.46,2.31-3.44,4.25-5.78,5.66-45.07,27.14-90.47,64.06-134.95,109.76-10.91,11.21-29.18,29.98-43.44,50.21-18.74,26.59-21.11,42.21-19.8,50.64.77,4.96,3.33,12.37,16.57,19.42,13.27,7.07,33.96,10.66,61.47,10.66,82.17,0,200.49-32.22,263.7-51.43,133.8-40.65,265.21-93.21,390.57-156.21,132.41-66.54,251.73-141.68,354.65-223.32,115.61-91.71,196.71-179.69,241.03-261.49,10.94-20.19,22.3-43.67,23.63-64.76,1.26-19.91-7.02-35.28-26.06-48.35-20.33-13.96-46.66-20.46-82.87-20.46-20.63,0-41.74,2.06-62.14,4.05-5.66.55-11.51,1.12-17.13,1.62-.52.05-1.04.07-1.56.07-4.09,0-8.07-1.43-11.23-4.08-6.88-5.75-21.04-27.52-21.59-40.99-.25-6.11,1.84-11.68,5.89-15.67,2.58-2.55,5.89-4.23,9.46-4.81l78.98-12.92c.88-.14,1.76-.22,2.65-.23,4.93-.05,9.94-.14,15-.23,8.08-.14,16.44-.29,24.84-.29,48.03,0,97.7,4.83,135.55,39.85,21.34,19.74,32.73,45.14,33.85,75.49.9,24.25-4.92,51.89-17.29,82.15-16.34,39.97-44.5,85.48-83.69,135.26-103.29,131.21-267.93,261.5-476.12,376.8-92.09,51-189.35,97.23-289.08,137.42-95.72,38.57-188.84,69.64-276.77,92.37-67.64,17.48-174.17,37.89-251.81,37.89Z"/>
      <path class="cls-5" d="M1433.75,307.5c44.45,0,90.11,4.15,123.66,35.19,76.44,70.72-20.77,207.98-68.99,269.23-220.91,280.63-690.48,512.06-1032.59,600.46-63.41,16.39-169.42,37.34-247.43,37.34-16.74,0-32.19-.96-45.66-3.15-46.21-7.48-77.31-34.94-68.13-84.8,12.29-66.74,166.45-202.8,222.8-245.62,8.27-6.29,17.84-13.87,28.02-15.47,4.74,1.31,14.73,28.19,11.61,33.13-50.27,30.27-97.47,70.43-138.46,112.55-31.34,32.19-108.81,112.51-42.36,147.92,17.01,9.07,41.42,12.71,69.7,12.71,87.12,0,211-34.63,268.79-52.18,262.15-79.65,536.42-212.35,751-382.57,89.68-71.14,190.64-165.54,245.54-266.87,25.72-47.48,45.47-99.21-7.91-135.87-26.87-18.45-59.51-23.53-92.78-23.53-27.49,0-55.39,3.47-80.83,5.74-4.6-3.85-18.61-26.86-14.64-30.78l78.98-12.92c12.86-.13,26.21-.51,39.67-.51M1433.76,272.5v35-35c-8.56,0-17,.15-25.15.29-5.16.09-10.02.17-14.88.22-1.77.02-3.54.17-5.3.46l-78.98,12.92c-7.15,1.17-13.77,4.53-18.93,9.62-7.6,7.5-11.54,17.74-11.08,28.84.24,5.82,1.63,15.42,10.89,31.58,5.8,10.12,11.5,17.56,16.95,22.11,6.32,5.29,14.28,8.16,22.46,8.16,1.04,0,2.07-.05,3.11-.14,5.7-.51,11.58-1.08,17.28-1.64,19.99-1.95,40.66-3.97,60.44-3.97,32.51,0,55.69,5.53,72.96,17.39,17.33,11.9,19.13,22.81,18.5,32.82-1.12,17.8-12.11,40.09-21.55,57.52-23.59,43.53-58.65,89.7-104.22,137.2-37.17,38.75-81.68,78.76-132.3,118.92-101.99,80.9-220.29,155.39-351.63,221.4-62.23,31.27-127.11,60.43-192.83,86.64-64.37,25.68-129.96,48.71-194.97,68.46-62.28,18.92-178.7,50.67-258.61,50.67-32.28,0-47.21-5.39-53.24-8.6-2.64-1.4-7.12-4.14-7.51-6.68-.18-1.17-1.27-12.21,16.81-37.86,13.46-19.1,31.12-37.24,41.67-48.08,43.43-44.62,87.65-80.61,131.44-106.97,4.68-2.82,8.64-6.7,11.56-11.32,8.14-12.92,7.96-29.19-.58-51.23-5.18-13.38-13.43-29.37-31.34-34.31-3.04-.84-6.17-1.26-9.3-1.26-1.81,0-3.62.14-5.42.42-18.46,2.89-32.44,13.54-42.65,21.32l-1.13.86c-31.89,24.23-84.96,69.84-131.65,117.11-27.09,27.43-49.27,52.63-65.93,74.9-21.99,29.39-34.57,53.97-38.47,75.13-7.04,38.22,4.32,64.44,15.08,79.71,17.03,24.16,45.34,40.06,81.87,45.98,14.73,2.39,31.97,3.59,51.25,3.59,37.24,0,82.62-4.37,134.89-12.99,54.77-9.03,99.51-19.83,121.3-25.46,88.67-22.91,182.51-54.23,278.93-93.08,100.39-40.45,198.31-86.99,291.02-138.34,99.63-55.17,190.11-114.23,268.94-175.52,86.34-67.13,157.81-136.36,212.45-205.76,40.2-51.06,69.18-97.98,86.14-139.47,38.69-94.62,10-148.54-20.88-177.11-19.94-18.45-44.02-30.76-73.59-37.64-26.19-6.08-53.22-6.86-73.84-6.86h0Z"/>
    </g>
    <text class="cls-7" transform="translate(2052.29 1061.43)"><tspan class="cls-13" x="0" y="0">R</tspan><tspan x="65.82" y="0">ASTREAMENTO E MONITO</tspan><tspan class="cls-13" x="1230.15" y="0">R</tspan><tspan x="1295.97" y="0">AMENTO</tspan></text>
    <text class="cls-6" transform="translate(1694.01 897.03)"><tspan x="0" y="0">ne</tspan><tspan class="cls-11" x="511.19" y="0">w</tspan><tspan x="871.62" y="0">t</tspan><tspan class="cls-12" x="1079.8" y="0">R</tspan><tspan class="cls-9" x="1350.58" y="0">A</tspan><tspan class="cls-2" x="1608.4" y="0">CKS</tspan></text>
  </g>
  <circle class="cls-1" cx="848.13" cy="598.33" r="196.9"/>
  <circle class="cls-10" cx="848.13" cy="598.33" r="116.86"/>
  <circle class="cls-5" cx="964.12" cy="450.7" r="93.4"/>
</svg>